<svg width="36" height="26" viewBox="0 0 36 26" fill="none" xmlns="http://www.w3.org/2000/svg">
<path d="M1.66665 8.04173L1.19469 8.20682L1.31184 8.54173L1.66594 8.54173L1.66624 8.54173L1.66637 8.54173L1.67282 8.54181C1.67931 8.54191 1.69014 8.54213 1.705 8.5426C1.73475 8.54355 1.78059 8.54551 1.8402 8.54958C1.95959 8.55771 2.13324 8.57421 2.34284 8.60754C2.76451 8.6746 3.31867 8.80777 3.86645 9.06911C4.41282 9.32978 4.94056 9.71183 5.33226 10.2725C5.72095 10.8288 5.99684 11.5908 5.99684 12.6506C5.99684 13.7104 5.72095 14.4724 5.33226 15.0287C4.94056 15.5893 4.41282 15.9714 3.86645 16.2321C3.31867 16.4934 2.76451 16.6266 2.34284 16.6936C2.13324 16.727 1.95959 16.7435 1.8402 16.7516C1.78059 16.7557 1.73475 16.7576 1.705 16.7586C1.69014 16.759 1.67931 16.7593 1.67282 16.7594L1.66637 16.7594L1.66624 16.7594L1.66594 16.7594H1.66566L1.27703 16.7594L1.18182 17.1372L1.66665 17.2594C1.18182 17.1372 1.18179 17.1373 1.18176 17.1375L1.18169 17.1378L1.18147 17.1386L1.18076 17.1415L1.1783 17.1514L1.16946 17.1878C1.16191 17.2193 1.15117 17.2649 1.13798 17.3232C1.11161 17.4396 1.07539 17.6069 1.03525 17.813C0.95511 18.2246 0.858678 18.7945 0.794245 19.4263C0.72998 20.0565 0.696398 20.759 0.746148 21.433C0.795425 22.1005 0.928926 22.778 1.22572 23.3331C1.31465 23.4994 1.45501 23.6126 1.57519 23.689C1.70138 23.7693 1.84922 23.8366 2.00548 23.8947C2.31831 24.0111 2.72347 24.1123 3.19393 24.2021C4.13861 24.3826 5.41762 24.5304 6.90864 24.6478C9.89483 24.8829 13.7838 25 17.6666 25C21.5494 25 25.4384 24.8829 28.4246 24.6478C29.9157 24.5304 31.1947 24.3826 32.1394 24.2021C32.6098 24.1123 33.015 24.0111 33.3278 23.8947C33.4841 23.8366 33.6319 23.7693 33.7581 23.689C33.8783 23.6126 34.0186 23.4994 34.1076 23.3331C34.4044 22.778 34.5379 22.1005 34.5872 21.433C34.6369 20.759 34.6033 20.0565 34.5391 19.4263C34.4746 18.7945 34.3782 18.2246 34.2981 17.813C34.2579 17.6069 34.2217 17.4396 34.1953 17.3232C34.1821 17.2649 34.1714 17.2193 34.1638 17.1878L34.155 17.1514L34.1525 17.1415L34.1518 17.1386L34.1516 17.1378L34.1515 17.1375C34.1515 17.1373 34.1515 17.1372 33.6666 17.2594L34.1515 17.1372L34.044 16.7107L33.6082 16.7629L33.6079 16.7629L33.6076 16.7629L33.6074 16.763L33.6072 16.763L33.6005 16.7637C33.5936 16.7644 33.5821 16.7655 33.5663 16.7669C33.5346 16.7696 33.4859 16.7732 33.4226 16.7762C33.2959 16.7822 33.1117 16.7855 32.8897 16.7745C32.4424 16.7522 31.8579 16.6719 31.2819 16.4478C30.7092 16.225 30.1562 15.8646 29.744 15.2847C29.3332 14.7067 29.0346 13.8717 29.0346 12.6506C29.0346 11.4294 29.3332 10.5945 29.744 10.0165C30.1562 9.43659 30.7092 9.07622 31.2819 8.85336C31.8579 8.62923 32.4424 8.54902 32.8897 8.52671C33.1117 8.51563 33.2959 8.51901 33.4226 8.52498C33.4859 8.52795 33.5346 8.53156 33.5663 8.53427C33.5821 8.53563 33.5936 8.53676 33.6005 8.53748L33.6072 8.53819L33.6074 8.53822L33.6076 8.53824L33.6079 8.53827L33.6082 8.53831L34.0224 8.5879L34.1448 8.18802L33.6666 8.04173C34.1448 8.18802 34.1448 8.18792 34.1448 8.1878L34.1449 8.18746L34.1452 8.18646L34.1463 8.18313L34.1498 8.17121L34.1629 8.12708C34.1741 8.0889 34.1901 8.03352 34.2098 7.96303C34.2491 7.82212 34.3032 7.62052 34.3633 7.37508C34.4831 6.8854 34.6278 6.21563 34.7246 5.50234C34.8209 4.7935 34.8732 4.01835 34.7964 3.32583C34.7217 2.65135 34.5128 1.94824 33.9856 1.51152C33.8735 1.41871 33.737 1.35765 33.6198 1.31451C33.4941 1.26829 33.348 1.22764 33.1886 1.19099C32.8694 1.11759 32.4611 1.05216 31.9837 0.993283C31.0269 0.87527 29.7516 0.778674 28.2702 0.703177C25.3051 0.552063 21.4828 0.483949 17.6641 0.503182C13.8458 0.522413 10.0221 0.629016 7.05498 0.82847C5.57286 0.928099 4.29454 1.05152 3.33406 1.20067C2.85495 1.27507 2.44259 1.35772 2.11864 1.45081C1.95671 1.49735 1.80695 1.54928 1.67754 1.6087C1.55464 1.66513 1.41672 1.74314 1.30738 1.85611C0.823929 2.35559 0.613421 3.03998 0.537039 3.71345C0.45996 4.39306 0.512474 5.12177 0.609562 5.77719C0.707148 6.43598 0.852927 7.04108 0.97361 7.48004C1.03411 7.7001 1.08871 7.87984 1.12846 8.00538C1.14834 8.06818 1.16454 8.11751 1.17594 8.15164L1.18932 8.19125L1.19306 8.20212L1.19415 8.20525L1.19449 8.20623L1.19461 8.20657C1.19465 8.20671 1.19469 8.20682 1.66665 8.04173Z" stroke="white"/>
<line x1="13.1666" y1="1.58929" x2="13.1666" y2="24.0324" stroke="white" stroke-dasharray="3 3"/>
</svg>
